<svg xmlns="http://www.w3.org/2000/svg" viewBox="0 0 487 418" fill="currentColor"><path d="m302 316-201 1c-22 0-49 4-68-8-18-11-21-32-24-50A814 814 0 0 1 4 53c1-10 0-22 5-31 6-11 18-12 31-13q89-7 180-9c62 0 123 10 185 11 20 0 36 0 51 14 14 13 17 27 18 46 3 57 2 115 8 172 2 18 10 46-1 63-7 12-26 13-39 14-16 1-16 4-22 17l-14 31q-12 27-34 48c-7 6-22-13-24-17q-25-40-46-83m0-21c6 4 15 12 16 15q17 36 37 70c22-24 33-56 45-84q0-2 3-3 20 0 40-4c15-5 16-19 16-33-1-37-8-74-10-111l-2-50V70c0-8-3-20-1-28v-2h-3l-21-1-55-3q-112-10-224-4l-63 5-32 2c-11 3-13 11-15 21l-3 50q-1 52 3 103l4 59 2 15 9 1 32-1h72l135-2q7 1 15 10"/></svg>