<svg xmlns="http://www.w3.org/2000/svg" viewBox="0 0 599 95" fill="currentColor"><path class="mix-blend-multiply" d="M318 43q-82 6-162 17l-77 8q-39 2-76 9c-14 3 20 18 29 18 50-1 103-10 153-15q83-7 164-19c13-2-20-18-31-18"/><path class="mix-blend-multiply" d="M447 41c-53 3-108 11-161 16l-78 9q-37 2-75 9c-14 3 20 18 29 18 50-1 103-10 153-15q82-7 164-19c13-2-20-18-32-18"/><path class="mix-blend-multiply" d="M562 0c-54 4-108 15-161 23l-77 12q-38 3-74 13c-14 4 22 28 30 27 51-1 103-13 153-21 54-8 110-14 163-27 12-3-23-28-34-27"/></svg>