<svg xmlns="http://www.w3.org/2000/svg" viewBox="0 0 429 142" fill="currentColor"><path class="mix-blend-multiply" d="M297 7C221 1 133-8 61 14 32 23 7 39 1 60q-6 28 28 46c22 12 52 17 80 22q57 8 115 6c66 0 144-4 192-38 24-17 9-40-13-54-30-19-69-19-106-28-6-1-3 4-2 6q5 5 15 9c27 7 65 5 87 19 26 16-3 35-25 45-47 21-105 25-161 25s-118 0-170-17q-21-7-20-21t12-26c15-15 43-24 67-29 68-15 144-7 213-4 6 1-1-6-2-7q-5-5-14-7"/><path class="mix-blend-multiply" d="M334 19C278 7 216 3 157 4 106 4 52 14 21 43c-23 21-26 46 3 66 35 23 90 28 137 31 68 4 135 4 198-15 5-2-12-16-19-15-51 10-100 18-154 16-45-2-95-3-137-16q-29-8-24-28 7-18 24-31c31-23 78-31 123-32 58-1 119 3 175 14 6 1 3-4 2-6q-5-6-15-8"/></svg>