<svg xmlns="http://www.w3.org/2000/svg" viewBox="0 0 960 804" fill="currentColor"><path d="M559.4 434.1c6.3-1.1 9.2-6.1 9.2-10.7 0-4.7-2.5-10-9.7-11-.6-.2-3.5-.2-4.6-.2h-63.6c-2.1 0-6.9 0-10.3-.4a32 32 0 0 1-27.4-32.4 31.7 31.7 0 0 1 27.8-32.2q3.6-.5 9.5-.5H586V369h-94.3c-3.6 0-5.3.2-6.8.6a10 10 0 0 0-7.3 9.5c0 3.8 2 8.4 7 9.8 1.2.3 4.4.5 7.3.5h65.3c1.4 0 4.4 0 8 .4 18.5 1.7 28.2 18.1 28.2 33.3 0 14.9-9.3 31.8-29.7 33.8l-7.8.1H456v-22.8h98.3c1.3 0 4.4 0 5.1-.2m-186.3 0c6.5-1.1 9.2-6.1 9.2-10.7 0-4.7-2.5-10-9.7-11-.6-.2-3.5-.2-4.6-.2h-63.6c-2.1 0-6.9 0-10.3-.4a32 32 0 0 1-27.4-32.4 31.7 31.7 0 0 1 27.8-32.2q3.6-.5 9.5-.5h95.8V369h-94.3c-3.6 0-5.3.2-6.8.6a10 10 0 0 0-7.3 9.5c0 3.8 2 8.4 7 9.8 1.2.3 4.5.5 7.3.5H371c1.4 0 4.4 0 8 .4 18.5 1.7 28.2 18.1 28.2 33.3 0 14.9-9.3 31.8-29.7 33.8l-7.8.1h-100v-22.8h98.5c1.1 0 4.2 0 5-.2m-154.6-88.2v111.8h-24.8V346zM139 457.7h-31.2l-83-83.8v83.8H0V346h31.8l82.5 83.4V346H139zM935.4 346H960v111.8h-31.2L845.9 374v83.8h-24.8V346H853l82.4 83.4zm-243.2 0h26.7l69.7 111.8h-30l-12.3-20H665l-12.4 20h-30.1zm41.3 70.7-27.8-45-28 45zM137.7 282.5l-.6 1.5h-109v-13.1l45.4-5.4c28-3.2 34-15.6 41.5-31.2l2-3.8A402 402 0 0 1 480.2.4c155 0 297.7 90.3 363.2 229.7l2 3.8c7.6 15.6 13.5 28 41.5 31.2l45.3 5.4v13.1H823l-.3-1.1A361 361 0 0 0 480.2 38.9c-155 0-292.6 97.9-342.5 243.6M823 520.2h109.4v13.1l-45.4 5.4c-28 3.2-33.9 15.6-41.5 31.2l-1.9 3.8a403 403 0 0 1-363.2 230c-155 0-297.7-90.4-363.3-230.2l-1.9-3.8c-7.6-15.6-13.5-28-41.5-31.2L28.4 533v-13h109l.3 1.1a361 361 0 0 0 342.5 243.7c155 0 292.6-97.8 342.5-243.5z"/></svg>